# xmcd
#
# Track frame offsets: 
#        150
#        23248
#        41319
#        63118
#        82523
#        100989
#        120830
#        139769
#        161874
#        179314
#        196569
#
# Disc length: 2852 seconds
#
# Revision: 2
# Processed by: cddbd v1.5PL3 Copyright (c) Steve Scherf et al.
# Submitted via: ExactAudioCopy v0.95a5
#
DISCID=780b220b
DTITLE=張學友 - 走過1999
DYEAR=1999
DGENRE=Pop
TTITLE0=心如刀割
TTITLE1=壞x5
TTITLE2=她來聽我的演唱會
TTITLE3=留給自己一個晚上
TTITLE4=留給自己一個晚上
TTITLE5=認床
TTITLE6=好呆
TTITLE7=走過1999
TTITLE8=你好毒
TTITLE9=放棄你
TTITLE10=女人香
EXTD=
EXTT0=
EXTT1=
EXTT2=
EXTT3=
EXTT4=
EXTT5=
EXTT6=
EXTT7=
EXTT8=
EXTT9=
EXTT10=
PLAYORDER=
